<?xml version="1.0" encoding="UTF-8" standalone="no"?>
<!-- Created with Inkscape (http://www.inkscape.org/) -->

<svg
   width="160"
   height="160"
   viewBox="0 0 42.333332 42.333333"
   version="1.1"
   id="svg1"
   inkscape:version="1.3.1 (91b66b0783, 2023-11-16)"
   sodipodi:docname="statera-logo.svg"
   inkscape:export-filename="statera-logo.png"
   inkscape:export-xdpi="300"
   inkscape:export-ydpi="300"
   xmlns:inkscape="http://www.inkscape.org/namespaces/inkscape"
   xmlns:sodipodi="http://sodipodi.sourceforge.net/DTD/sodipodi-0.dtd"
   xmlns="http://www.w3.org/2000/svg"
   xmlns:svg="http://www.w3.org/2000/svg">
  <sodipodi:namedview
     id="namedview1"
     pagecolor="#ffffff"
     bordercolor="#000000"
     borderopacity="0.25"
     inkscape:showpageshadow="2"
     inkscape:pageopacity="0.0"
     inkscape:pagecheckerboard="0"
     inkscape:deskcolor="#d1d1d1"
     inkscape:document-units="px"
     showgrid="true"
     inkscape:zoom="3.5589233"
     inkscape:cx="62.940385"
     inkscape:cy="72.915312"
     inkscape:window-width="1920"
     inkscape:window-height="986"
     inkscape:window-x="1333"
     inkscape:window-y="1612"
     inkscape:window-maximized="1"
     inkscape:current-layer="layer1">
    <inkscape:grid
       id="grid1"
       units="mm"
       originx="0"
       originy="0"
       spacingx="0.99999997"
       spacingy="0.99999999"
       empcolor="#0099e5"
       empopacity="0.30196078"
       color="#0099e5"
       opacity="0.14901961"
       empspacing="5"
       dotted="false"
       gridanglex="30"
       gridanglez="30"
       visible="true" />
  </sodipodi:namedview>
  <defs
     id="defs1">
    <linearGradient
       id="paint0_linear_301_1172"
       x1="11.3989"
       y1="7.4477501"
       x2="11.3989"
       y2="38.3876"
       gradientUnits="userSpaceOnUse"
       gradientTransform="matrix(1.1972213,0,0,1.1972213,109.6487,138.19185)">
      <stop
         stop-color="#00A9FF"
         id="stop25" />
      <stop
         offset="1"
         stop-color="#00D7A0"
         id="stop26" />
    </linearGradient>
  </defs>
  <g
     inkscape:label="Layer 1"
     inkscape:groupmode="layer"
     id="layer1"
     transform="translate(-102.12927,-144.46248)">
    <path
       d="m 134.126,163.08996 -4.34281,-4.28783 h 0.009 l -2.79853,-2.72609 -0.0561,-0.0462 c -2.29314,-2.07002 -5.82164,-1.9869 -8.03985,0.20317 -2.134,2.10685 -2.27441,5.53535 -0.3181,7.7994 l 2.95763,2.92935 1.71277,1.59879 1.47884,1.4692 c 0.61775,0.62842 0.60842,1.645 -0.0181,2.26409 -0.30906,0.30498 -0.72073,0.47132 -1.1606,0.47132 -0.43983,0 -0.84237,-0.16652 -1.15124,-0.46213 l -3.54732,-3.52999 -3.46301,-3.40994 c -2.52713,-3.05876 -1.96555,-8.12289 1.28222,-11.32029 3.27587,-3.23434 8.05864,-3.6871 11.35324,-1.11811 2.2369,1.82051 3.98714,3.62243 3.99646,3.64089 l 3.03256,-2.86473 c -0.0751,-0.0833 -1.92812,-1.98676 -4.38959,-4.00131 -5.0262,-3.92746 -12.15817,-3.336 -16.95962,1.40468 -4.76403,4.6852 -5.42856,12.30898 -1.46947,16.96654 l 4.09013,4.04755 1.75961,1.75572 1.20739,1.18286 c 0.0561,0.0647 0.10317,0.11086 0.15928,0.16652 1.09507,1.08119 2.55513,1.68183 4.11822,1.68183 1.5631,0 3.02311,-0.60064 4.12756,-1.69106 1.75965,-1.73739 2.16205,-4.32484 1.1887,-6.45029 -0.42128,-0.9611 -1.21671,-1.72807 -1.21671,-1.72807 l -1.3197,-1.32146 -2.10595,-1.97758 -2.48961,-2.45812 c -0.50548,-0.63765 -0.44933,-1.55246 0.13077,-2.12545 0.60842,-0.60064 1.57241,-0.64684 2.20889,-0.10181 l 2.35862,2.29169 4.5019,4.44493 c 2.6769,3.32687 2.24635,8.40941 -1.01078,11.62527 -1.69409,1.67265 -3.94977,2.59677 -6.35522,2.59677 -2.00292,0 -3.89357,-0.62842 -5.47531,-1.8297 l -0.0272,-0.0181 c -0.19638,-0.14796 -0.39321,-0.31402 -0.58027,-0.48045 l -0.49607,-0.41584 -2.92021,-2.88316 -2.967,2.9294 2.97637,2.93867 0.58964,0.50824 c 0.2715,0.24933 0.56159,0.48055 0.85173,0.70227 l 0.0362,0.0272 c 2.31183,1.74649 5.07294,2.66143 8.00243,2.66143 3.52859,0 6.84192,-1.34929 9.33154,-3.80741 4.86706,-4.8053 5.39118,-12.22578 1.23553,-17.25293 z"
       fill="url(#paint0_linear_301_1172)"
       id="path25"
       style="fill:url(#paint0_linear_301_1172);stroke-width:1.19722" />
  </g>
</svg>
