<?xml version="1.0" encoding="UTF-8"?><svg id="a" xmlns="http://www.w3.org/2000/svg" xmlns:xlink="http://www.w3.org/1999/xlink" viewBox="0 0 358.09 130.08"><defs><style>.c{fill:url(#b);}.d{fill:#fff;}.e{fill:none;stroke:#b3b3b3;stroke-miterlimit:10;stroke-width:2.72px;}</style><linearGradient id="b" x1="31.32" y1="25.06" x2="31.32" y2="103.46" gradientTransform="matrix(1, 0, 0, 1, 0, 0)" gradientUnits="userSpaceOnUse"><stop offset="0" stop-color="#00a9ff"/><stop offset="1" stop-color="#00d7a0"/></linearGradient></defs><line class="e" x1="78.47" y1="15.15" x2="78.47" y2="119.04"/><path class="c" d="M52.3,61.47l-8.41-8.42,.02-.02-5.41-5.33-.11-.1c-4.44-4.07-11.27-3.89-15.56,.4-4.13,4.13-4.4,10.85-.62,15.3l5.73,5.75,.02-.02,3.31,3.14h0l2.86,2.87c1.2,1.24,1.19,3.22-.04,4.44-.6,.6-1.39,.93-2.24,.93h0c-.84,0-1.63-.32-2.22-.91l-6.87-6.92h0l-6.7-6.69c-4.89-6-3.8-15.92,2.47-22.2,6.33-6.33,15.6-7.23,21.97-2.19,4.32,3.57,7.71,7.1,7.75,7.14l5.88-5.62c-.15-.16-3.74-3.9-8.51-7.84-9.72-7.7-23.53-6.55-32.84,2.76-9.23,9.23-10.51,24.16-2.85,33.3l7.91,7.93h0l3.4,3.45,2.34,2.31c.11,.12,.21,.22,.3,.32,2.13,2.13,4.96,3.3,7.97,3.3h.01c3.02,0,5.85-1.18,7.98-3.31,3.41-3.41,4.18-8.48,2.3-12.65-.82-1.88-2.35-3.38-2.35-3.38l-2.56-2.59-4.08-3.87h0l-4.82-4.81c-.97-1.24-.87-3.05,.26-4.17,1.19-1.19,3.05-1.27,4.27-.19l4.56,4.49-.02,.02,8.71,8.7c5.18,6.52,4.34,16.49-1.96,22.79-3.28,3.28-7.65,5.09-12.31,5.09-3.88,0-7.54-1.24-10.59-3.58l-.05-.04c-.39-.3-.76-.61-1.12-.95l-.96-.82-5.65-5.65-5.75,5.75,5.76,5.76,1.15,1c.53,.48,1.08,.95,1.65,1.38l.07,.05c4.47,3.42,9.83,5.22,15.49,5.22,6.83,0,13.24-2.65,18.06-7.47,9.41-9.42,10.44-23.96,2.39-33.84Z"/><g><path class="d" d="M102.4,77.48l4.99-5.95c3.03,2.31,6.5,3.27,9.77,3.27,1.67,0,2.39-.44,2.39-1.2v-.08c0-.8-.88-1.24-3.87-1.84-6.26-1.28-11.77-3.07-11.77-8.98v-.08c0-5.31,4.15-9.42,11.85-9.42,5.39,0,9.38,1.28,12.61,3.83l-4.55,6.3c-2.63-1.91-5.78-2.75-8.38-2.75-1.4,0-2.03,.48-2.03,1.16v.08c0,.76,.76,1.24,3.71,1.8,7.14,1.32,11.93,3.39,11.93,9.02v.08c0,5.86-4.83,9.45-12.33,9.45-5.66,0-10.77-1.6-14.32-4.71Z"/><path class="d" d="M147.25,61.64h-8.22v-7.9h25.77v7.9h-8.22v20.03h-9.34v-20.03Z"/><path class="d" d="M182.96,53.54h9.26l11.77,28.13h-10.13l-1.48-3.75h-9.77l-1.44,3.75h-9.97l11.77-28.13Zm7.1,17.75l-2.55-6.78-2.55,6.78h5.11Z"/><path class="d" d="M218.59,61.64h-8.22v-7.9h25.77v7.9h-8.22v20.03h-9.34v-20.03Z"/><path class="d" d="M248.16,53.74h23.82v7.66h-14.64v2.83h13.64v6.74h-13.64v3.03h14.84v7.66h-24.02v-27.93Z"/><path class="d" d="M284.59,53.74h13.64c4.95,0,8.1,1.24,10.05,3.19,1.68,1.68,2.55,3.75,2.55,6.62v.08c0,4.07-2.11,6.9-5.51,8.54l6.5,9.5h-10.65l-5.27-7.98h-1.99v7.98h-9.34v-27.93Zm13.37,13.29c2.23,0,3.59-1,3.59-2.71v-.08c0-1.79-1.4-2.67-3.55-2.67h-4.07v5.47h4.03Z"/><path class="d" d="M331.75,53.54h9.26l11.77,28.13h-10.13l-1.48-3.75h-9.77l-1.44,3.75h-9.97l11.77-28.13Zm7.1,17.75l-2.55-6.78-2.55,6.78h5.11Z"/></g></svg>